<?xml version="1.0" encoding="utf-8"?>
<!-- Generator: Adobe Illustrator 16.0.0, SVG Export Plug-In . SVG Version: 6.00 Build 0)  -->
<!DOCTYPE svg PUBLIC "-//W3C//DTD SVG 1.1//EN" "http://www.w3.org/Graphics/SVG/1.1/DTD/svg11.dtd">
<svg version="1.1" id="图层_1" xmlns="http://www.w3.org/2000/svg" xmlns:xlink="http://www.w3.org/1999/xlink" x="0px" y="0px"
	 width="120px" height="40px" viewBox="0 0 120 40" enable-background="new 0 0 120 40" xml:space="preserve">
<path fill="#33A1D2" d="M50.789,26.967c-1.067,0-2.064-0.205-2.992-0.612c-0.928-0.408-1.746-0.974-2.448-1.699
	c-0.705-0.723-1.252-1.563-1.64-2.517c-0.388-0.954-0.583-1.983-0.583-3.09c0-1.094,0.195-2.117,0.583-3.07
	c0.388-0.956,0.932-1.791,1.629-2.508c0.697-0.718,1.511-1.284,2.439-1.699c0.928-0.415,1.931-0.623,3.011-0.623
	c0.96,0,1.824,0.137,2.587,0.406c0.763,0.269,1.506,0.709,2.23,1.313c0.12,0.094,0.195,0.195,0.227,0.307
	c0.034,0.112,0.034,0.222,0,0.324c-0.032,0.105-0.081,0.199-0.146,0.278c-0.027,0.145-0.104,0.261-0.227,0.345
	c-0.127,0.086-0.273,0.129-0.446,0.129c-0.171,0-0.341-0.066-0.513-0.196c-0.5-0.45-1.041-0.782-1.619-0.999
	c-0.58-0.218-1.278-0.325-2.093-0.325c-0.83,0-1.609,0.166-2.341,0.503c-0.731,0.336-1.371,0.793-1.924,1.373
	c-0.552,0.58-0.985,1.25-1.294,2.014s-0.463,1.574-0.463,2.43c0,0.882,0.153,1.705,0.463,2.469c0.31,0.763,0.742,1.434,1.294,2.013
	c0.553,0.579,1.193,1.033,1.924,1.363c0.732,0.328,1.511,0.492,2.341,0.492c0.697,0,1.362-0.117,1.994-0.354
	c0.632-0.236,1.237-0.572,1.816-1.008c0.185-0.145,0.373-0.203,0.563-0.177c0.19,0.026,0.356,0.109,0.494,0.247
	s0.208,0.325,0.208,0.562c0,0.12-0.02,0.226-0.059,0.316c-0.04,0.093-0.101,0.191-0.179,0.297c-0.685,0.592-1.438,1.024-2.261,1.293
	C52.543,26.831,51.685,26.967,50.789,26.967"/>
<path fill="#33A1D2" d="M62.972,26.868c-1,0-1.896-0.24-2.686-0.722c-0.789-0.479-1.415-1.135-1.874-1.964
	c-0.461-0.829-0.693-1.765-0.693-2.803c0-1.057,0.24-1.996,0.721-2.825c0.481-0.828,1.135-1.484,1.965-1.964
	c0.828-0.481,1.765-0.722,2.804-0.722c1.025,0,1.95,0.24,2.772,0.722c0.822,0.479,1.476,1.136,1.957,1.964
	c0.479,0.829,0.728,1.769,0.739,2.825l-0.672,0.334c0,0.974-0.22,1.851-0.661,2.627c-0.44,0.775-1.041,1.391-1.798,1.845
	C64.792,26.64,63.934,26.868,62.972,26.868 M63.21,25.366c0.736,0,1.391-0.173,1.965-0.523c0.572-0.347,1.026-0.824,1.36-1.43
	c0.337-0.605,0.504-1.285,0.504-2.033c0-0.764-0.167-1.445-0.504-2.045c-0.334-0.599-0.788-1.076-1.36-1.433
	c-0.574-0.355-1.229-0.533-1.965-0.533c-0.725,0-1.38,0.178-1.966,0.533c-0.586,0.356-1.05,0.834-1.391,1.433
	c-0.343,0.6-0.513,1.281-0.513,2.045c0,0.748,0.17,1.428,0.513,2.033c0.341,0.605,0.805,1.083,1.391,1.43
	C61.83,25.193,62.485,25.366,63.21,25.366 M67.83,26.769c-0.238,0-0.438-0.075-0.603-0.227c-0.165-0.15-0.247-0.354-0.247-0.601
	v-3.261l0.376-1.717l1.322,0.416v4.562c0,0.247-0.078,0.45-0.237,0.601C68.285,26.693,68.08,26.769,67.83,26.769"/>
<path fill="#33A1D2" d="M72.667,26.769c-0.263,0-0.467-0.071-0.611-0.218c-0.145-0.144-0.217-0.347-0.217-0.609v-9.143
	c0-0.264,0.072-0.47,0.217-0.614c0.145-0.146,0.349-0.217,0.611-0.217c0.265,0,0.465,0.071,0.603,0.217
	c0.138,0.145,0.207,0.351,0.207,0.614v9.143c0,0.263-0.069,0.466-0.207,0.609C73.132,26.697,72.932,26.769,72.667,26.769
	 M72.568,20.076c0.027-0.804,0.234-1.523,0.622-2.162c0.389-0.641,0.902-1.144,1.54-1.512c0.638-0.369,1.342-0.553,2.103-0.553
	c0.673,0,1.183,0.099,1.531,0.295c0.349,0.199,0.477,0.469,0.387,0.811c-0.04,0.185-0.122,0.316-0.249,0.395
	c-0.123,0.079-0.27,0.119-0.433,0.119c-0.167,0-0.354-0.012-0.563-0.04c-0.777-0.091-1.465-0.042-2.063,0.148
	c-0.6,0.19-1.076,0.503-1.433,0.939c-0.355,0.433-0.533,0.953-0.533,1.56H72.568z"/>
<path fill="#33A1D2" d="M85.146,26.868c-0.999,0-1.896-0.24-2.687-0.722c-0.788-0.479-1.413-1.135-1.874-1.964
	c-0.46-0.829-0.691-1.765-0.691-2.803c0-1.057,0.24-1.996,0.722-2.825c0.48-0.828,1.135-1.484,1.964-1.964
	c0.828-0.481,1.764-0.722,2.804-0.722c1.027,0,1.952,0.24,2.776,0.722c0.82,0.479,1.473,1.136,1.953,1.964
	c0.481,0.829,0.729,1.769,0.741,2.825l-0.671,0.334c0,0.974-0.222,1.851-0.663,2.627c-0.439,0.775-1.039,1.391-1.795,1.845
	C86.967,26.64,86.109,26.868,85.146,26.868 M85.384,25.366c0.737,0,1.393-0.173,1.966-0.523c0.572-0.347,1.026-0.824,1.362-1.43
	c0.334-0.605,0.503-1.285,0.503-2.033c0-0.764-0.169-1.445-0.503-2.045c-0.336-0.599-0.79-1.076-1.362-1.433
	c-0.573-0.355-1.229-0.533-1.966-0.533c-0.724,0-1.378,0.178-1.965,0.533c-0.586,0.356-1.049,0.834-1.391,1.433
	c-0.343,0.6-0.514,1.281-0.514,2.045c0,0.748,0.171,1.428,0.514,2.033c0.342,0.605,0.805,1.083,1.391,1.43
	C84.006,25.193,84.66,25.366,85.384,25.366 M90.005,26.769c-0.235,0-0.438-0.075-0.603-0.227c-0.164-0.15-0.247-0.354-0.247-0.601
	v-3.261l0.376-1.717l1.323,0.416v4.562c0,0.247-0.081,0.45-0.236,0.601C90.459,26.693,90.255,26.769,90.005,26.769"/>
<path fill="#33A1D2" d="M97.093,26.769c-0.341,0-0.599-0.185-0.771-0.552l-4.324-9.162c-0.092-0.186-0.101-0.369-0.028-0.554
	c0.072-0.184,0.213-0.329,0.424-0.435c0.197-0.105,0.392-0.121,0.584-0.049c0.188,0.072,0.337,0.201,0.442,0.385l4.108,8.905h-0.851
	l4.069-8.905c0.078-0.198,0.223-0.328,0.434-0.395c0.212-0.066,0.415-0.054,0.612,0.039c0.21,0.105,0.348,0.254,0.415,0.445
	c0.065,0.189,0.059,0.372-0.02,0.542l-4.285,9.183C97.731,26.584,97.461,26.769,97.093,26.769"/>
<path fill="#33A1D2" d="M109.06,26.868c-1.08,0-2.033-0.233-2.863-0.702c-0.829-0.467-1.482-1.115-1.956-1.943
	c-0.474-0.829-0.709-1.778-0.709-2.843c0-1.08,0.223-2.031,0.672-2.854c0.447-0.823,1.062-1.471,1.845-1.945
	s1.688-0.711,2.715-0.711c1.001,0,1.873,0.226,2.618,0.682c0.744,0.455,1.315,1.082,1.717,1.885c0.402,0.804,0.602,1.72,0.602,2.745
	c0,0.224-0.072,0.404-0.216,0.544c-0.146,0.138-0.331,0.207-0.554,0.207h-8.253v-1.362h8.353l-0.85,0.592
	c0.013-0.725-0.118-1.375-0.396-1.955c-0.276-0.579-0.67-1.032-1.184-1.362c-0.515-0.328-1.126-0.494-1.838-0.494
	c-0.749,0-1.403,0.172-1.963,0.514s-0.989,0.82-1.285,1.433c-0.296,0.611-0.442,1.307-0.442,2.084c0,0.775,0.169,1.465,0.513,2.071
	c0.342,0.607,0.813,1.08,1.411,1.423s1.287,0.512,2.063,0.512c0.447,0,0.905-0.078,1.373-0.235c0.468-0.159,0.839-0.355,1.115-0.594
	c0.158-0.118,0.339-0.181,0.542-0.186c0.204-0.007,0.372,0.048,0.505,0.166c0.197,0.171,0.298,0.356,0.306,0.553
	c0.008,0.198-0.082,0.37-0.267,0.515c-0.435,0.368-0.987,0.671-1.659,0.908C110.304,26.749,109.665,26.868,109.06,26.868"/>
<path fill="#33A1D2" d="M118.875,26.769c-0.555,0-1.041-0.148-1.463-0.443c-0.42-0.297-0.749-0.708-0.987-1.235
	c-0.237-0.526-0.355-1.13-0.355-1.816V12.176c0-0.249,0.077-0.449,0.228-0.602c0.151-0.152,0.352-0.227,0.602-0.227
	c0.238,0,0.431,0.074,0.584,0.227c0.151,0.152,0.227,0.353,0.227,0.602v11.098c0,0.541,0.108,0.984,0.325,1.334
	c0.216,0.348,0.497,0.522,0.841,0.522h0.493c0.209,0,0.382,0.076,0.514,0.228c0.131,0.15,0.196,0.346,0.196,0.584
	c0,0.247-0.095,0.45-0.286,0.601c-0.191,0.151-0.438,0.227-0.74,0.227H118.875z"/>
<path fill="#0C6BB0" d="M36.039,25.306c-0.917,1.98-2.184,3.795-3.737,5.349c-3.526,3.524-8.213,5.467-13.197,5.467
	c-4.985,0-9.672-1.942-13.196-5.467c-1.018-1.018-1.904-2.15-2.657-3.365l5.57,0.017l10.253,5.638l15.219-11.24L23.08,15.336
	L23.01,0L1.942,18.491l14.824,8.15l-0.063-12.634l4.387,2.491l0.046,10.035c0,0.05,0.008,0.101,0.015,0.148l1.974-1.456l-0.034-7.59
	l7.545,4.286l-11.72,8.656l-9.581-5.268l-2.667-0.009H2.176H1.937H0c1.035,2.516,2.563,4.828,4.497,6.762
	c3.902,3.902,9.089,6.052,14.607,6.052s10.706-2.149,14.607-6.052c1.937-1.936,3.467-4.242,4.502-6.759H36.039z M14.691,10.572
	l0.063,12.685l-9.357-5.143L21.034,4.39l0.045,9.81L14.691,10.572z"/>
</svg>
