<?xml version="1.0" encoding="utf-8"?>
<!-- Generator: Adobe Illustrator 16.0.0, SVG Export Plug-In . SVG Version: 6.00 Build 0)  -->
<!DOCTYPE svg PUBLIC "-//W3C//DTD SVG 1.1//EN" "http://www.w3.org/Graphics/SVG/1.1/DTD/svg11.dtd">
<svg version="1.1" id="图层_1" xmlns="http://www.w3.org/2000/svg" xmlns:xlink="http://www.w3.org/1999/xlink" x="0px" y="0px"
	 width="120px" height="40px" viewBox="0 0 120 40" enable-background="new 0 0 120 40" xml:space="preserve">
<path fill="#0E4A6E" d="M11.852,0.7v7.498H4.169V0.7H0v18.953h4.169v-7.601h7.682v7.601h4.168V0.7H11.852z"/>
<path fill="#0E4A6E" d="M67.536,0.7v7.498H59.83V0.7h-4.169v18.953h4.169v-7.601h7.706v7.601h4.171V0.7H67.536z"/>
<path fill="#0E4A6E" d="M27.871,5.551l2.516,6.106h-5.085L27.871,5.551z M25.982,0.542L17.83,19.653h4.247l1.73-4.246h8.023
	l1.73,4.246h4.378L29.811,0.542H25.982z"/>
<path fill="#0E4A6E" d="M38.253,16.876l2.464-2.961c1.547,1.44,3.566,2.252,5.663,2.305c1.704,0,2.727-0.68,2.727-1.78v-0.055
	c0-1.022-0.629-1.599-3.827-2.411c-3.828-1.025-6.293-2.045-6.293-5.795c0-3.433,2.753-5.714,6.633-5.714
	c2.543-0.052,5.034,0.812,7.053,2.414l-2.176,3.146c-1.416-1.103-3.146-1.757-4.928-1.861c-1.6,0-2.438,0.732-2.438,1.647
	c0,1.262,0.813,1.653,4.063,2.495c3.854,1.02,6.004,2.385,6.004,5.686c0,3.779-2.883,5.876-6.947,5.876
	c-2.962,0-5.82-1.077-8.049-3.071"/>
<path fill="#0E4A6E" d="M86.127,0.7v18.953h14.447v-3.721H90.269v-3.987h8.94V8.224h-8.94V4.396h10.147V0.7H86.127z"/>
<path fill="#0E4A6E" d="M115.253,0.7l-4.614,7.604L106.131,0.7h-4.876l7.287,11.481v7.472h4.171v-7.549L120,0.7H115.253z"/>
<path fill="#586168" d="M84.502,19.653l-8.733-8.728l-2.909,2.909l5.821,5.818H84.502z"/>
<path fill="#0E4A6E" d="M78.681,0.7l-2.964,2.935l-2.961,2.964l2.961,2.935l2.964-2.935l2.936-2.964L84.58,0.7H78.681z"/>
<path fill="#0E4A6E" d="M55.688,27.545l4.771,4.747l-4.771,4.799V27.545z"/>
<path fill="#586168" d="M67.75,37.742c-0.737,0-1.47-0.127-2.152-0.415c-0.631-0.265-1.206-0.657-1.702-1.158
	c-0.501-0.495-0.867-1.071-1.129-1.699c-0.262-0.686-0.421-1.395-0.421-2.126c0-1.44,0.554-2.806,1.521-3.831
	c0.498-0.495,1.077-0.887,1.73-1.175c0.709-0.288,1.467-0.449,2.227-0.421c0.449,0,0.894,0.023,1.34,0.133
	c0.365,0.075,0.734,0.179,1.101,0.312c0.313,0.132,0.631,0.316,0.919,0.523c0.287,0.185,0.523,0.421,0.786,0.657l-1.47,1.705
	c-0.365-0.34-0.786-0.628-1.258-0.864c-0.444-0.213-0.945-0.316-1.44-0.316c-0.421,0-0.841,0.08-1.233,0.265
	c-0.368,0.155-0.708,0.392-0.971,0.703c-0.262,0.294-0.472,0.656-0.631,1.025c-0.155,0.42-0.235,0.841-0.235,1.284
	s0.08,0.864,0.235,1.285c0.159,0.368,0.369,0.708,0.631,1.02c0.263,0.316,0.603,0.553,0.971,0.708
	c0.393,0.185,0.813,0.266,1.233,0.266c0.524,0.022,1.048-0.104,1.521-0.317c0.443-0.236,0.864-0.547,1.233-0.916l1.466,1.492
	c-0.263,0.288-0.551,0.554-0.838,0.789c-0.288,0.236-0.628,0.421-0.971,0.605c-0.366,0.155-0.735,0.288-1.127,0.362
	c-0.446,0.081-0.919,0.133-1.391,0.133"/>
<path fill="#586168" d="M75.532,37.719c-0.362,0-0.731-0.052-1.071-0.155c-0.316-0.109-0.631-0.266-0.893-0.473
	c-0.236-0.213-0.444-0.473-0.605-0.761c-0.129-0.316-0.207-0.656-0.207-1.025c0-0.392,0.078-0.783,0.236-1.123
	c0.155-0.316,0.365-0.604,0.656-0.789c0.312-0.236,0.654-0.392,1.02-0.473c0.421-0.104,0.864-0.155,1.313-0.155
	c0.366,0,0.732,0.022,1.072,0.075c0.316,0.058,0.604,0.132,0.893,0.235v-0.178c0-0.214-0.026-0.421-0.104-0.605
	c-0.081-0.185-0.211-0.368-0.34-0.501c-0.369-0.26-0.815-0.415-1.285-0.363c-0.395,0-0.789,0.023-1.181,0.127
	c-0.34,0.081-0.683,0.185-1.022,0.316l-0.579-1.728c0.449-0.185,0.893-0.346,1.365-0.449c0.576-0.127,1.152-0.185,1.729-0.185
	c0.553-0.023,1.103,0.058,1.627,0.236c0.418,0.132,0.787,0.368,1.101,0.656c0.314,0.317,0.527,0.68,0.657,1.101
	c0.158,0.473,0.21,0.974,0.21,1.469v4.666H77.92v-0.863c-0.288,0.316-0.631,0.575-1.022,0.737
	C76.529,37.638,76.034,37.742,75.532,37.719L75.532,37.719z M76.241,36.169c0.473,0.029,0.919-0.127,1.284-0.392
	c0.159-0.133,0.288-0.259,0.369-0.443c0.078-0.185,0.133-0.369,0.133-0.576v-0.421c-0.214-0.104-0.45-0.155-0.657-0.213
	c-0.262-0.052-0.524-0.075-0.786-0.075c-0.421-0.028-0.815,0.075-1.155,0.288c-0.13,0.104-0.236,0.208-0.313,0.369
	c-0.078,0.127-0.107,0.288-0.107,0.467c0,0.132,0.029,0.293,0.081,0.397c0.052,0.126,0.155,0.236,0.262,0.311
	c0.263,0.185,0.576,0.266,0.919,0.266"/>
<path fill="#586168" d="M81.696,29.51h2.281v1.158c0.288-0.369,0.628-0.686,1.02-0.945c0.45-0.265,0.974-0.392,1.498-0.368
	c0.473,0,0.942,0.08,1.362,0.265c0.446,0.179,0.839,0.443,1.179,0.813c0.34,0.392,0.631,0.835,0.812,1.308
	c0.214,0.576,0.317,1.181,0.317,1.785c0,0.6-0.104,1.204-0.317,1.78c-0.181,0.473-0.472,0.922-0.812,1.313
	c-0.314,0.34-0.732,0.628-1.152,0.813c-0.446,0.185-0.916,0.26-1.389,0.26c-0.524,0.028-1.048-0.104-1.498-0.363
	c-0.392-0.236-0.731-0.524-1.02-0.841V40h-2.281V29.51z M85.916,35.777c0.263,0,0.524-0.052,0.761-0.155s0.446-0.266,0.631-0.449
	c0.185-0.208,0.34-0.444,0.443-0.703c0.106-0.288,0.158-0.604,0.158-0.922c0-0.311-0.052-0.599-0.158-0.916
	c-0.104-0.259-0.259-0.495-0.443-0.708c-0.185-0.185-0.395-0.34-0.631-0.444c-0.236-0.104-0.498-0.161-0.761-0.161
	c-0.262,0-0.523,0.058-0.76,0.161c-0.233,0.104-0.447,0.26-0.628,0.444c-0.185,0.213-0.314,0.449-0.421,0.708
	c-0.104,0.288-0.158,0.605-0.158,0.916c0,0.317,0.055,0.634,0.158,0.922c0.106,0.259,0.236,0.495,0.421,0.703
	c0.181,0.184,0.395,0.346,0.628,0.449C85.393,35.726,85.654,35.777,85.916,35.777z"/>
<path fill="#586168" d="M91.346,26.601h2.411v2.045h-2.411V26.601z M91.397,29.51h2.281v8.054h-2.281V29.51z"/>
<path fill="#586168" d="M98.005,37.69c-0.316,0-0.63-0.023-0.944-0.104c-0.265-0.074-0.524-0.207-0.734-0.392
	c-0.21-0.213-0.395-0.473-0.473-0.737c-0.13-0.363-0.185-0.761-0.185-1.152v-3.825h-0.941v-1.941h0.941v-2.045h2.256v2.045h1.89
	v1.941h-1.89v3.434c0,0.524,0.262,0.783,0.734,0.783c0.395,0,0.786-0.104,1.126-0.311v1.832c-0.236,0.161-0.524,0.265-0.786,0.346
	c-0.34,0.104-0.683,0.127-1.022,0.127"/>
<path fill="#586168" d="M103.3,37.719c-0.34,0-0.68-0.052-1.022-0.155c-0.314-0.109-0.631-0.266-0.891-0.473
	c-0.236-0.213-0.446-0.473-0.604-0.761c-0.133-0.316-0.208-0.656-0.208-1.025c0-0.392,0.075-0.783,0.236-1.123
	c0.156-0.316,0.363-0.604,0.654-0.789c0.313-0.236,0.653-0.392,1.022-0.473c0.421-0.104,0.864-0.155,1.311-0.155
	c0.366,0,0.734,0.022,1.074,0.075c0.317,0.058,0.605,0.132,0.893,0.235v-0.178c0.023-0.214-0.028-0.421-0.106-0.605
	c-0.077-0.185-0.181-0.368-0.34-0.501c-0.365-0.26-0.814-0.415-1.284-0.363c-0.395,0-0.786,0.023-1.181,0.127
	c-0.341,0.081-0.684,0.185-1.023,0.316l-0.575-1.728c0.446-0.185,0.893-0.346,1.365-0.449c0.575-0.127,1.151-0.185,1.728-0.185
	c0.551-0.023,1.101,0.058,1.625,0.236c0.42,0.132,0.789,0.368,1.101,0.656c0.316,0.317,0.526,0.68,0.656,1.101
	c0.158,0.473,0.21,0.974,0.21,1.469v4.666h-2.203v-0.863c-0.288,0.316-0.628,0.575-1.02,0.737c-0.446,0.179-0.945,0.288-1.417,0.259
	V37.719z M104.086,36.169c0.473,0.029,0.919-0.127,1.284-0.392c0.159-0.133,0.288-0.259,0.366-0.443
	c0.081-0.185,0.133-0.369,0.133-0.576v-0.421c-0.211-0.104-0.447-0.155-0.657-0.213c-0.259-0.052-0.524-0.075-0.783-0.075
	c-0.395-0.028-0.815,0.075-1.155,0.288c-0.13,0.075-0.236,0.208-0.313,0.369c-0.081,0.155-0.106,0.311-0.106,0.467
	c0,0.132,0.025,0.293,0.077,0.397c0.055,0.126,0.158,0.236,0.265,0.311c0.26,0.185,0.576,0.266,0.916,0.266"/>
<path fill="#586168" d="M111.819,26.601h-2.281v10.963h2.281V26.601z"/>
</svg>
