<?xml version="1.0" encoding="utf-8"?>
<!-- Generator: Adobe Illustrator 16.0.0, SVG Export Plug-In . SVG Version: 6.00 Build 0)  -->
<!DOCTYPE svg PUBLIC "-//W3C//DTD SVG 1.1//EN" "http://www.w3.org/Graphics/SVG/1.1/DTD/svg11.dtd">
<svg version="1.1" id="图层_1" xmlns="http://www.w3.org/2000/svg" xmlns:xlink="http://www.w3.org/1999/xlink" x="0px" y="0px"
	 width="2500px" height="931px" viewBox="0 0 2500 931" enable-background="new 0 0 2500 931" xml:space="preserve">
<path d="M887.702,698.099L714.655,525.051c-36.161-36.162-33.08-34.882-84.3-34.882H305.832c-51.248,0-48.167-1.25-84.299,34.882
	L48.485,698.099c39.234,79.148,100.051,145.588,175.431,191.649l199.325-199.325c18.139-18.139,26.162-25.172,36.016-28.197
	c2.806-0.991,5.748-1.54,8.721-1.627c2.975,0.081,5.917,0.63,8.72,1.627c9.854,2.908,17.878,10.058,36.017,28.197l199.326,199.325
	C787.51,843.726,848.41,777.28,887.702,698.099z"/>
<path d="M246.561,473.163c13.082-14.098,11.25-26.162,24.04-59.242c42.142-109.065,164.719-163.316,273.783-121.174
	c55.665,21.508,99.667,65.51,121.175,121.174c12.79,33.197,10.958,45.145,24.01,59.242c13.052,14.099,26.162,16.977,67.672,16.977
	h179.151c2.04-258.642-205.979-469.966-464.621-472.005C213.128,16.095,1.805,224.114-0.234,482.756
	c-0.019,2.461-0.019,4.922,0,7.384h179.065C220.486,490.14,233.858,486.883,246.561,473.163L246.561,473.163z M2242.367,233.229
	c-143.25,0-259.787,115.141-259.787,256.677s116.537,256.678,259.787,256.678c143.251,0,259.817-115.142,259.817-256.678
	S2385.647,233.229,2242.367,233.229z M2242.95,624.379c-74.269,0.016-134.486-60.176-134.503-134.442
	c-0.016-74.268,60.177-134.486,134.443-134.502c74.268-0.016,134.486,60.176,134.502,134.442c0,0.021,0,0.039,0,0.06
	C2377.297,564.147,2317.16,624.283,2242.95,624.379z M1786.977,287.006v445.305h121.593V245.816h-80.403
	c-5.927-0.328-11.867,0.261-17.616,1.745c-10.434,3.216-18.598,11.392-21.802,21.83
	C1787.253,275.136,1786.655,281.078,1786.977,287.006L1786.977,287.006z M1192.954,245.816v486.496h80.725
	c5.927,0.327,11.868-0.26,17.615-1.743c10.45-3.2,18.631-11.38,21.83-21.832c1.472-5.739,2.059-11.669,1.745-17.586V433.455
	l240.806,274.584c7.5,8.545,13.749,15.175,23.518,19.621c9.767,4.449,18.865,4.738,30.26,4.738h88.688V245.816h-80.725
	c-5.925-0.328-11.867,0.261-17.614,1.745c-10.452,3.189-18.627,11.375-21.802,21.83c-1.496,5.746-2.095,11.688-1.773,17.616v257.752
	l-240.777-274.641c-7.529-8.576-13.779-15.203-23.546-19.623c-9.767-4.418-18.864-4.768-30.26-4.768L1192.954,245.816z"/>
</svg>
