<?xml version="1.0" encoding="utf-8"?>
<!-- Generator: Adobe Illustrator 16.0.0, SVG Export Plug-In . SVG Version: 6.00 Build 0)  -->
<!DOCTYPE svg PUBLIC "-//W3C//DTD SVG 1.1//EN" "http://www.w3.org/Graphics/SVG/1.1/DTD/svg11.dtd">
<svg version="1.1" id="图层_1" xmlns="http://www.w3.org/2000/svg" xmlns:xlink="http://www.w3.org/1999/xlink" x="0px" y="0px"
	 width="120px" height="40px" viewBox="0 0 120 40" enable-background="new 0 0 120 40" xml:space="preserve">
<path fill="#040000" d="M42.909,31.113l-7.973-7.972c-1.666-1.666-1.524-1.607-3.883-1.607H16.101c-2.361,0-2.219-0.058-3.884,1.607
	l-7.972,7.972c1.808,3.646,4.61,6.708,8.082,8.83l9.184-9.184c0.835-0.835,1.205-1.159,1.658-1.299
	c0.13-0.045,0.266-0.07,0.402-0.074c0.138,0.004,0.273,0.029,0.402,0.074c0.455,0.135,0.824,0.464,1.659,1.299l9.184,9.184
	C38.292,37.823,41.098,34.762,42.909,31.113z"/>
<path fill="#040000" d="M13.371,20.75c0.603-0.649,0.519-1.205,1.108-2.729c1.941-5.024,7.588-7.524,12.613-5.582
	c2.565,0.991,4.592,3.018,5.583,5.582c0.59,1.53,0.504,2.08,1.106,2.729c0.603,0.65,1.205,0.783,3.118,0.783h8.253
	C45.245,9.618,35.662-0.118,23.746-0.212C11.83-0.306,2.095,9.277,2,21.192C2,21.307,2,21.42,2,21.533h8.25
	C12.17,21.533,12.786,21.383,13.371,20.75L13.371,20.75z M105.318,9.698c-6.601,0-11.968,5.304-11.968,11.825
	c0,6.521,5.367,11.825,11.968,11.825s11.97-5.304,11.97-11.825C117.288,15.002,111.921,9.698,105.318,9.698z M105.345,27.718
	c-3.422,0.001-6.194-2.772-6.194-6.194c-0.002-3.42,2.771-6.196,6.192-6.196c3.42,0,6.196,2.772,6.196,6.194
	c0,0.001,0,0.001,0,0.002C111.535,24.942,108.766,27.714,105.345,27.718z M84.338,12.175v20.517h5.603V10.277h-3.704
	c-0.272-0.016-0.546,0.013-0.812,0.08c-0.48,0.147-0.856,0.525-1.006,1.006C84.352,11.628,84.325,11.902,84.338,12.175
	L84.338,12.175z M56.972,10.277v22.414h3.72c0.271,0.014,0.547-0.013,0.813-0.081c0.479-0.148,0.855-0.524,1.005-1.006
	c0.068-0.266,0.095-0.537,0.079-0.811V18.922l11.094,12.65c0.347,0.395,0.635,0.698,1.084,0.904c0.449,0.205,0.87,0.218,1.394,0.218
	h4.086V10.277h-3.718c-0.273-0.016-0.547,0.013-0.813,0.08c-0.481,0.146-0.857,0.524-1.004,1.006
	c-0.069,0.265-0.097,0.539-0.081,0.812V24.05L63.535,11.397c-0.345-0.396-0.633-0.701-1.084-0.904
	c-0.449-0.203-0.869-0.219-1.393-0.219L56.972,10.277z"/>
</svg>
