<?xml version="1.0" encoding="utf-8"?>
<!-- Generator: Adobe Illustrator 16.0.0, SVG Export Plug-In . SVG Version: 6.00 Build 0)  -->
<!DOCTYPE svg PUBLIC "-//W3C//DTD SVG 1.1//EN" "http://www.w3.org/Graphics/SVG/1.1/DTD/svg11.dtd">
<svg version="1.1" id="图层_1" xmlns="http://www.w3.org/2000/svg" xmlns:xlink="http://www.w3.org/1999/xlink" x="0px" y="0px"
	 width="120px" height="40px" viewBox="0 0 120 40" enable-background="new 0 0 120 40" xml:space="preserve">
<path fill="#040000" d="M35.22,3H0.802C0.588,3,0.384,3.079,0.234,3.22C0.085,3.356,0.001,3.548,0,3.749v32.206
	c0,0.199,0.084,0.391,0.234,0.53c0.151,0.142,0.354,0.221,0.566,0.221H35.22c0.213,0,0.416-0.079,0.567-0.221
	c0.147-0.137,0.233-0.328,0.234-0.53V3.749c0-0.198-0.084-0.389-0.234-0.529C35.632,3.078,35.43,2.999,35.22,3L35.22,3z
	 M24.014,24.721c0,0.199-0.083,0.39-0.234,0.529c-0.155,0.142-0.356,0.222-0.565,0.22H12.807c-0.211,0-0.416-0.079-0.565-0.22
	c-0.148-0.136-0.233-0.327-0.234-0.529v-9.736c0-0.199,0.083-0.389,0.234-0.53c0.15-0.141,0.354-0.219,0.565-0.219h10.407
	c0.211,0,0.416,0.078,0.565,0.219c0.149,0.136,0.233,0.328,0.234,0.53V24.721z M107.276,14.237H96.869
	c-0.441,0-0.801,0.335-0.801,0.75v9.736c0,0.414,0.359,0.749,0.801,0.749h10.406c0.443,0,0.802-0.335,0.802-0.749v-9.736
	C108.077,14.572,107.719,14.237,107.276,14.237L107.276,14.237z M95.271,3H84.867c-0.443,0-0.802,0.336-0.802,0.75v9.736
	c0,0.415,0.358,0.75,0.802,0.75h10.404c0.442,0,0.801-0.335,0.801-0.75V3.75c0-0.415-0.358-0.749-0.801-0.749V3z M119.29,3h-10.407
	c-0.441,0-0.799,0.336-0.799,0.75v9.736c0,0.415,0.357,0.75,0.799,0.75h10.406c0.442,0,0.801-0.335,0.801-0.75V3.75
	c0-0.415-0.358-0.749-0.801-0.749L119.29,3z M95.271,25.472H84.867c-0.443,0-0.802,0.335-0.802,0.748v9.738
	c0,0.413,0.358,0.748,0.802,0.748h10.404c0.442,0,0.801-0.336,0.801-0.748V26.22C96.072,25.807,95.714,25.472,95.271,25.472
	L95.271,25.472z M119.29,25.472h-10.407c-0.441,0-0.799,0.335-0.799,0.748v9.738c0,0.413,0.357,0.748,0.799,0.748h10.406
	c0.442,0,0.801-0.336,0.801-0.748V26.22C120.09,25.807,119.731,25.472,119.29,25.472L119.29,25.472z M77.247,3H66.843
	c-0.443,0-0.801,0.336-0.801,0.75v9.736c0,0.415,0.357,0.75,0.801,0.75h10.404c0.443,0,0.801-0.335,0.801-0.75V3.75
	c0-0.415-0.357-0.749-0.801-0.749V3z M77.247,25.472H66.843c-0.443,0-0.801,0.335-0.801,0.748v9.738
	c0,0.413,0.357,0.748,0.801,0.748h10.404c0.443,0,0.801-0.336,0.801-0.748V26.22C78.048,25.807,77.69,25.472,77.247,25.472
	L77.247,25.472z M66.038,14.976c0-0.199-0.086-0.389-0.234-0.53c-0.154-0.142-0.356-0.22-0.566-0.219H54.031V3.749
	c0-0.198-0.084-0.389-0.234-0.529C53.643,3.078,53.44,2.999,53.23,3H42.825c-0.213,0-0.417,0.079-0.568,0.22
	c-0.147,0.136-0.232,0.328-0.233,0.529v32.19c0,0.198,0.083,0.389,0.233,0.529c0.151,0.14,0.355,0.22,0.568,0.22H53.23
	c0.212,0,0.417-0.08,0.566-0.22c0.15-0.141,0.234-0.331,0.234-0.529V25.461h11.206c0.214,0,0.416-0.079,0.567-0.219
	c0.147-0.136,0.233-0.328,0.234-0.53V14.976z"/>
</svg>
