<?xml version="1.0" encoding="utf-8"?>
<!-- Generator: Adobe Illustrator 16.0.0, SVG Export Plug-In . SVG Version: 6.00 Build 0)  -->
<!DOCTYPE svg PUBLIC "-//W3C//DTD SVG 1.1//EN" "http://www.w3.org/Graphics/SVG/1.1/DTD/svg11.dtd">
<svg version="1.1" id="图层_1" xmlns="http://www.w3.org/2000/svg" xmlns:xlink="http://www.w3.org/1999/xlink" x="0px" y="0px"
	 width="120px" height="40px" viewBox="0 0 120 40" enable-background="new 0 0 120 40" xml:space="preserve">
<rect y="1.392" fill="#D71723" width="120" height="36.608"/>
<path fill="#FFFFFF" d="M12.193,7.497H6.104v24.416h4.06v-9.289h2.029c3.363,0.006,6.095-2.713,6.104-6.075v-0.03v-2.963
	C18.28,10.198,15.55,7.489,12.193,7.497 M14.238,16.533c0,1.122-0.911,2.031-2.03,2.031h-0.015h-2.029v-7.009h2.029
	c1.129,0,2.045,0.916,2.045,2.045V16.533z"/>
<path fill="#FFFFFF" d="M40.667,7.497h-6.09v24.416h4.06v-9.289h2.03c3.363,0.006,6.095-2.71,6.104-6.075v-0.029v-2.963
	c0.009-3.363-2.711-6.096-6.074-6.103h-0.029 M42.711,16.489c0,1.12-0.909,2.029-2.03,2.029h-0.014h-2.03v-6.962h2.03
	c1.128,0,2.044,0.916,2.044,2.044V16.489z"/>
<path fill="#FFFFFF" d="M26.163,7.497c-3.303,0.219-5.861,2.984-5.822,6.296v11.852c-0.032,3.308,2.524,6.062,5.822,6.282
	c3.375,0.17,6.25-2.426,6.422-5.8c0.005-0.105,0.008-0.214,0.008-0.32V13.599c-0.005-3.379-2.749-6.114-6.128-6.109
	c-0.086,0.001-0.172,0.003-0.258,0.007 M28.519,25.807c-0.003,1.123-0.916,2.028-2.037,2.022c-0.057,0-0.114-0.002-0.17-0.009
	c-1.074-0.127-1.874-1.05-1.852-2.133V13.705c-0.022-1.082,0.778-2.004,1.852-2.134c1.117-0.099,2.103,0.726,2.2,1.843
	c0.006,0.062,0.007,0.124,0.007,0.185V25.807z"/>
<polygon fill="#FFFFFF" points="67.111,7.497 63.053,19.481 58.978,7.497 54.92,7.497 54.92,31.897 58.978,31.897 58.978,20.164 
	61.587,27.835 64.519,27.835 67.111,20.164 67.111,31.897 71.185,31.897 71.185,7.497 "/>
<path fill="#FFFFFF" d="M101.688,16.533V13.57c0.008-3.363-2.712-6.095-6.073-6.104h-0.029h-6.089v24.445h4.059v-9.274h2.015
	l2.06,9.274h4.059l-2.326-10.594C100.835,20.167,101.693,18.4,101.688,16.533 M97.63,16.533c0,1.122-0.909,2.031-2.029,2.031h-0.015
	h-2.03v-7.009h2.03c1.128,0,2.044,0.916,2.044,2.045V16.533z"/>
<path fill="#FFFFFF" d="M83.393,7.497h-6.104l-4.074,24.4h4.074l0.682-4.075h4.739l0.683,4.075h4.015L83.393,7.497z M78.651,23.793
	l1.69-10.163l1.688,10.163H78.651z"/>
<polygon fill="#FFFFFF" points="102.741,7.497 102.741,11.571 106.297,11.571 106.297,31.897 110.356,31.897 110.356,11.571 
	113.927,11.571 113.927,7.497 "/>
</svg>
